<?xml version="1.0" standalone="no"?>
<!DOCTYPE svg PUBLIC "-//W3C//DTD SVG 20010904//EN"
 "http://www.w3.org/TR/2001/REC-SVG-20010904/DTD/svg10.dtd">
<svg version="1.0" xmlns="http://www.w3.org/2000/svg"
 width="940.000000pt" height="924.000000pt" viewBox="0 0 940.000000 924.000000"
 preserveAspectRatio="xMidYMid meet">

<g transform="translate(0.000000,924.000000) scale(0.100000,-0.100000)"
fill="#000000" stroke="none">
<path d="M4405 8754 c-310 -29 -498 -59 -725 -115 -1527 -374 -2717 -1550
-3085 -3049 -86 -353 -109 -555 -110 -965 0 -343 5 -407 51 -685 209 -1263
1023 -2373 2186 -2979 469 -244 959 -392 1538 -463 142 -18 738 -18 880 0 459
56 858 160 1240 322 1308 554 2258 1747 2484 3118 46 279 51 344 51 682 0 338
-5 403 -51 682 -191 1155 -902 2201 -1926 2831 -514 317 -1097 518 -1748 603
-118 15 -678 28 -785 18z m-1248 -3120 c138 -28 274 -97 386 -196 l38 -33 -91
-110 c-128 -154 -112 -143 -157 -108 -100 79 -166 108 -280 124 -152 21 -318
-29 -423 -127 -144 -135 -209 -334 -197 -603 16 -358 170 -565 459 -617 129
-24 265 -4 341 48 l27 19 0 195 0 194 -175 0 -175 0 0 160 0 160 350 0 350 0
-2 -447 -3 -447 -57 -46 c-115 -92 -295 -161 -481 -182 -204 -23 -433 26 -611
130 -82 48 -208 171 -267 261 -184 281 -217 723 -81 1075 108 276 353 486 642
547 110 23 304 25 407 3z m2863 -896 c156 -486 298 -929 316 -985 l32 -103
-206 0 -207 0 -54 203 c-30 111 -61 223 -69 250 l-14 47 -320 -2 -321 -3 -67
-245 -67 -245 -201 -3 -201 -2 29 87 c21 64 482 1505 591 1851 l11 32 232 0
232 0 284 -882z m980 -103 l0 -985 -200 0 -200 0 0 985 0 985 200 0 200 0 0
-985z m-2699 -526 c157 -47 214 -278 101 -409 -64 -76 -153 -103 -247 -76
-108 32 -175 125 -175 244 0 178 151 291 321 241z"/>
<path d="M5484 5293 c-24 -106 -76 -307 -140 -541 -41 -150 -74 -277 -74 -282
0 -6 86 -10 231 -10 l231 0 -6 25 c-3 13 -41 154 -85 312 -43 158 -91 341
-107 406 -15 64 -32 117 -36 117 -4 0 -10 -12 -14 -27z"/>
</g>
</svg>
